<?xml version="1.0" encoding="UTF-8" standalone="no"?>
<!DOCTYPE svg PUBLIC "-//W3C//DTD SVG 20010904//EN"
              "http://www.w3.org/TR/2001/REC-SVG-20010904/DTD/svg10.dtd">

<svg xmlns="http://www.w3.org/2000/svg"
     width="127.522mm" height="127.522mm"
     viewBox="0 0 512 512">
  <path id="arrow"
        fill="none" stroke="black" stroke-width="1"
        d="M 31.00,110.44
           C 49.88,108.03 59.73,118.73 72.00,131.00
             72.00,131.00 97.00,156.00 97.00,156.00
             97.00,156.00 211.00,270.00 211.00,270.00
             211.00,270.00 242.00,301.00 242.00,301.00
             244.29,303.29 252.51,312.15 255.00,312.80
             258.80,313.80 266.35,304.65 269.00,302.00
             269.00,302.00 308.00,263.00 308.00,263.00
             308.00,263.00 426.00,145.00 426.00,145.00
             426.00,145.00 442.00,129.00 442.00,129.00
             455.10,115.90 464.32,107.30 484.00,111.09
             510.44,116.20 520.30,148.84 503.67,169.00
             503.67,169.00 483.00,190.00 483.00,190.00
             483.00,190.00 445.00,228.00 445.00,228.00
             445.00,228.00 330.00,343.00 330.00,343.00
             330.00,343.00 292.00,381.00 292.00,381.00
             281.55,391.45 274.65,400.18 259.00,401.83
             241.88,403.63 232.01,393.01 221.00,382.00
             221.00,382.00 188.00,349.00 188.00,349.00
             188.00,349.00 67.00,228.00 67.00,228.00
             67.00,228.00 28.00,189.00 28.00,189.00
             23.28,184.28 10.00,171.49 6.79,167.00
             -8.88,145.11 3.29,115.63 31.00,110.44 Z" />
</svg>
