<?xml version="1.0" encoding="UTF-8" standalone="no"?>
<!DOCTYPE svg PUBLIC "-//W3C//DTD SVG 20010904//EN"
              "http://www.w3.org/TR/2001/REC-SVG-20010904/DTD/svg10.dtd">

<svg xmlns="http://www.w3.org/2000/svg"
     width="135.45mm" height="135.45mm"
     viewBox="0 0 512 512">
  <path id="Download"
        fill="none" stroke="black" stroke-width="1"
        d="M 64.00,258.00
           C 64.00,258.00 64.00,116.00 64.00,116.00
             64.02,100.13 70.41,97.59 81.00,87.00
             81.00,87.00 108.00,60.00 108.00,60.00
             108.00,60.00 151.00,17.00 151.00,17.00
             161.19,6.81 164.02,0.02 179.00,0.00
             179.00,0.00 321.00,0.00 321.00,0.00
             321.00,0.00 406.00,0.00 406.00,0.00
             420.41,0.02 424.98,6.06 425.00,20.00
             425.00,20.00 425.00,141.00 425.00,141.00
             425.00,141.00 481.00,141.00 481.00,141.00
             500.65,141.09 511.97,155.03 512.00,174.00
             512.00,174.00 512.00,285.00 512.00,285.00
             512.00,301.42 514.86,318.69 499.96,330.07
             493.02,335.37 484.55,336.90 476.00,337.00
             476.00,337.00 425.00,337.00 425.00,337.00
             425.00,337.00 425.00,462.00 425.00,462.00
             424.98,475.94 420.41,481.98 406.00,482.00
             406.00,482.00 140.00,482.00 140.00,482.00
             138.05,482.00 134.94,481.88 133.17,482.60
             130.43,483.71 127.48,487.70 125.61,490.00
             125.61,490.00 113.41,504.96 113.41,504.96
             108.40,510.60 101.40,514.25 94.00,510.55
             87.69,507.39 74.34,489.37 69.20,483.00
             69.20,483.00 17.25,419.00 17.25,419.00
             17.25,419.00 9.20,409.00 9.20,409.00
             3.49,401.93 -3.26,394.65 1.69,385.01
             3.46,381.55 6.32,379.10 10.00,377.85
             14.46,376.34 37.66,377.00 44.00,377.00
             44.00,377.00 44.00,277.00 44.00,277.00
             44.02,262.01 49.71,258.01 64.00,258.00 Z
           M 395.00,30.00
           C 395.00,30.00 190.00,30.00 190.00,30.00
             190.00,30.00 190.00,103.00 190.00,103.00
             189.98,116.91 186.16,124.98 171.00,125.00
             171.00,125.00 113.00,125.00 113.00,125.00
             109.52,125.00 97.01,124.08 95.02,126.60
             93.77,128.19 94.00,132.01 94.00,134.00
             94.00,134.00 94.00,258.00 94.00,258.00
             94.00,258.00 129.00,258.00 129.00,258.00
             134.19,258.00 142.44,257.38 147.00,259.57
             154.83,263.33 155.99,269.24 156.00,277.00
             156.00,277.00 156.00,353.00 156.00,353.00
             156.00,353.00 156.00,370.00 156.00,370.00
             156.04,371.95 155.90,374.63 157.60,375.98
             159.19,377.23 163.01,377.00 165.00,377.00
             165.00,377.00 181.00,377.00 181.00,377.00
             183.53,377.00 186.59,376.89 189.00,377.65
             197.39,380.28 202.43,389.87 198.56,398.00
             196.54,402.24 188.90,410.95 185.61,415.00
             185.61,415.00 156.00,452.00 156.00,452.00
             156.00,452.00 395.00,452.00 395.00,452.00
             395.00,452.00 395.00,337.00 395.00,337.00
             395.00,337.00 220.00,337.00 220.00,337.00
             213.55,336.99 204.88,336.17 199.00,333.48
             184.59,326.89 180.02,312.65 180.00,298.00
             180.00,298.00 180.00,179.00 180.00,179.00
             180.03,157.93 190.02,141.04 213.00,141.00
             213.00,141.00 353.00,141.00 353.00,141.00
             353.00,141.00 382.00,141.00 382.00,141.00
             384.54,141.00 391.55,141.44 393.40,139.98
             395.38,138.41 395.00,134.30 395.00,132.00
             395.00,132.00 395.00,30.00 395.00,30.00 Z
           M 160.00,52.00
           C 153.87,54.90 147.88,62.12 143.00,67.00
             136.47,73.53 120.63,88.54 116.00,95.00
             116.00,95.00 160.00,95.00 160.00,95.00
             160.00,95.00 160.00,52.00 160.00,52.00 Z
           M 482.00,171.00
           C 482.00,171.00 273.00,171.00 273.00,171.00
             273.00,171.00 219.00,171.00 219.00,171.00
             210.36,171.02 210.02,171.36 210.00,180.00
             210.00,180.00 210.00,277.00 210.00,277.00
             210.00,277.00 210.00,299.00 210.00,299.00
             210.04,301.14 209.96,303.77 211.60,305.40
             213.52,307.32 217.46,306.99 220.00,307.00
             220.00,307.00 421.00,307.00 421.00,307.00
             421.00,307.00 473.00,307.00 473.00,307.00
             481.64,306.98 481.98,306.64 482.00,298.00
             482.00,298.00 482.00,171.00 482.00,171.00 Z
           M 244.00,188.53
           C 253.48,186.97 274.44,187.43 283.00,191.82
             301.11,201.10 306.80,225.16 293.67,241.00
             288.84,246.83 282.52,251.11 275.00,252.53
             270.47,253.39 258.50,251.59 256.02,255.31
             254.79,257.16 255.00,260.81 255.00,263.00
             254.99,267.86 256.00,280.24 253.40,283.89
             249.51,289.37 240.80,289.34 236.93,282.96
             234.87,279.56 235.01,274.85 235.00,271.00
             235.00,271.00 235.00,204.00 235.00,204.00
             235.10,196.12 235.82,191.18 244.00,188.53 Z
           M 324.00,188.53
           C 328.32,187.82 332.63,188.00 337.00,188.00
             348.91,188.00 362.02,187.92 372.00,195.53
             388.29,207.95 390.22,224.12 390.00,243.00
             389.83,257.15 383.31,271.76 372.00,280.47
             359.71,289.94 343.54,288.07 329.00,288.00
             318.89,287.95 316.05,285.11 316.00,275.00
             316.00,275.00 316.00,202.00 316.00,202.00
             316.01,194.39 315.95,191.14 324.00,188.53 Z
           M 425.00,248.00
           C 425.00,248.00 425.00,272.00 425.00,272.00
             424.99,275.71 425.18,279.54 423.31,282.90
             419.91,289.03 410.79,289.72 406.74,283.89
             404.73,281.00 405.01,277.34 405.00,274.00
             405.00,274.00 405.00,201.00 405.00,201.00
             405.02,197.43 404.92,194.21 407.57,191.42
             410.98,187.82 416.45,188.01 421.00,188.00
             421.00,188.00 441.00,188.00 441.00,188.00
             444.71,188.01 448.69,187.78 451.96,189.85
             458.63,194.09 457.92,202.67 452.87,206.26
             448.77,209.18 430.81,208.00 425.00,208.00
             425.00,208.00 425.00,228.00 425.00,228.00
             425.00,228.00 443.00,228.00 443.00,228.00
             457.18,228.24 455.32,241.35 450.66,245.12
             445.65,249.17 431.58,248.00 425.00,248.00 Z
           M 256.00,233.00
           C 260.58,233.00 270.20,233.69 273.98,231.69
             283.00,226.91 282.50,215.08 273.98,210.09
             269.21,207.28 261.49,208.00 256.00,208.00
             256.00,208.00 256.00,233.00 256.00,233.00 Z
           M 336.00,268.00
           C 343.95,268.00 353.21,269.23 359.98,264.35
             373.35,254.74 373.74,222.56 360.96,212.56
             353.96,207.08 344.34,208.00 336.00,208.00
             336.00,208.00 336.00,268.00 336.00,268.00 Z
           M 126.00,288.00
           C 126.00,288.00 74.00,288.00 74.00,288.00
             74.00,288.00 74.00,387.00 74.00,387.00
             74.00,389.60 74.11,392.50 73.35,395.00
             69.44,407.95 57.73,407.00 47.00,407.00
             47.00,407.00 77.00,445.00 77.00,445.00
             77.00,445.00 101.00,473.00 101.00,473.00
             101.00,473.00 136.42,429.00 136.42,429.00
             136.42,429.00 153.00,407.00 153.00,407.00
             143.98,407.00 135.65,408.40 129.65,399.98
             124.46,392.71 126.00,376.09 126.00,367.00
             126.00,367.00 126.00,288.00 126.00,288.00 Z" />
</svg>
