<?xml version="1.0" encoding="UTF-8" standalone="no"?>
<!DOCTYPE svg PUBLIC "-//W3C//DTD SVG 20010904//EN"
              "http://www.w3.org/TR/2001/REC-SVG-20010904/DTD/svg10.dtd">

<svg xmlns="http://www.w3.org/2000/svg"
     width="135.45mm" height="135.45mm"
     viewBox="0 0 512 512">
  <path id="Gear"
        fill="#fff9" stroke="#f55" stroke-width="2"
        d="M 208.00,0.15
           C 208.00,0.15 235.00,0.15 235.00,0.15
             235.00,0.15 284.00,0.15 284.00,0.15
             299.73,0.00 312.22,-1.33 324.99,10.18
             342.41,25.89 337.36,49.12 343.47,65.00
             347.95,76.68 359.89,86.81 373.00,85.67
             390.28,84.18 401.55,71.72 425.00,72.00
             446.90,72.27 455.85,89.40 465.28,106.00
             465.28,106.00 490.72,150.00 490.72,150.00
             496.92,160.92 503.69,169.94 503.99,183.00
             504.46,203.85 493.93,212.25 479.00,224.39
             469.13,232.42 456.09,242.52 457.33,257.00
             459.06,277.35 478.68,285.60 491.71,298.43
             501.27,307.84 505.25,319.73 503.83,333.00
             502.67,343.81 491.72,360.27 486.01,370.00
             486.01,370.00 466.42,404.00 466.42,404.00
             457.40,419.74 451.35,434.28 432.00,439.24
             428.18,440.22 423.93,440.04 420.00,440.00
             404.53,439.81 386.69,427.51 373.00,426.33
             359.85,425.19 347.93,435.29 343.47,447.00
             337.28,463.22 342.57,488.09 323.00,503.48
             310.03,513.69 297.32,512.00 282.00,512.00
             282.00,512.00 214.00,512.00 214.00,512.00
             208.88,511.94 203.74,511.11 199.00,509.12
             186.15,503.74 178.20,494.51 174.90,481.00
             170.81,464.27 172.97,444.19 158.00,432.53
             139.71,418.29 120.70,433.30 102.00,438.57
             96.16,440.22 92.94,440.07 87.00,440.00
             75.57,439.86 65.25,433.81 58.24,424.96
             58.24,424.96 41.58,397.00 41.58,397.00
             41.58,397.00 20.15,360.00 20.15,360.00
             11.25,344.40 3.29,331.52 10.47,313.00
             19.82,288.86 54.66,281.96 54.66,256.00
             54.66,228.88 15.79,221.88 9.24,195.00
             4.80,176.79 11.52,167.12 20.15,152.00
             20.15,152.00 42.72,113.00 42.72,113.00
             47.87,103.95 55.85,88.22 63.17,81.62
             71.96,73.70 80.63,71.87 92.00,72.00
             107.47,72.19 125.31,84.49 139.00,85.67
             153.87,86.96 167.21,73.95 169.91,60.00
             174.19,37.85 172.51,16.01 196.00,4.27
             200.74,1.90 202.89,1.40 208.00,0.15 Z
           M 298.00,40.00
           C 298.00,40.00 214.00,40.00 214.00,40.00
             211.47,53.89 210.05,70.19 204.57,83.00
             194.86,105.70 173.33,121.64 149.00,125.00
             145.62,125.47 142.44,126.10 139.00,125.91
             116.08,124.61 103.87,114.30 89.00,112.00
             89.00,112.00 59.42,164.00 59.42,164.00
             57.50,167.36 48.79,181.04 49.09,183.91
             49.37,186.56 53.07,189.03 55.00,190.61
             55.00,190.61 73.00,206.01 73.00,206.01
             86.26,219.02 94.92,237.16 94.92,256.00
             94.92,274.84 86.26,292.98 73.00,305.99
             73.00,305.99 55.00,321.39 55.00,321.39
             53.07,322.97 49.37,325.44 49.09,328.09
             48.79,330.96 57.50,344.64 59.42,348.00
             59.42,348.00 89.00,400.00 89.00,400.00
             102.22,397.96 113.79,389.15 133.00,386.85
             136.47,386.43 138.34,385.88 142.00,386.09
             171.22,387.75 195.79,405.64 206.19,433.00
             209.59,441.96 212.09,461.51 214.00,472.00
             214.00,472.00 298.00,472.00 298.00,472.00
             300.53,458.11 301.95,441.81 307.43,429.00
             317.19,406.17 338.53,390.38 363.00,387.00
             366.38,386.53 369.56,385.90 373.00,386.09
             395.92,387.39 408.13,397.70 423.00,400.00
             423.00,400.00 452.58,348.00 452.58,348.00
             454.50,344.64 463.21,330.96 462.91,328.09
             462.63,325.44 458.93,322.97 457.00,321.39
             457.00,321.39 439.00,305.99 439.00,305.99
             425.67,292.92 417.08,274.92 417.08,256.00
             417.08,237.08 425.67,219.08 439.00,206.01
             439.00,206.01 457.00,190.61 457.00,190.61
             458.93,189.03 462.63,186.56 462.91,183.91
             463.21,181.04 454.50,167.36 452.58,164.00
             452.58,164.00 423.00,112.00 423.00,112.00
             405.71,114.67 389.94,127.04 370.00,125.91
             340.83,124.25 316.19,106.31 305.81,79.00
             302.41,70.04 299.91,50.49 298.00,40.00 Z
           M 250.00,157.42
           C 259.57,156.26 274.71,158.56 284.00,161.29
             297.81,165.36 310.05,171.91 321.00,181.30
             361.18,215.73 365.62,277.02 333.00,318.00
             326.25,326.48 317.34,334.58 308.00,340.14
             296.33,347.08 283.53,351.99 270.00,353.72
             270.00,353.72 255.00,354.98 255.00,354.98
             201.08,353.93 158.07,310.91 157.02,257.00
             156.75,243.18 160.64,227.59 166.15,215.00
             170.86,204.25 178.58,193.19 187.00,185.04
             199.47,172.98 217.94,162.94 235.00,159.45
             235.00,159.45 250.00,157.42 250.00,157.42 Z
           M 253.00,197.29
           C 245.69,198.34 242.30,198.46 235.00,201.09
             218.74,206.95 205.23,221.62 200.03,238.00
             189.97,269.66 207.88,303.37 240.00,312.42
             245.02,313.84 253.87,315.30 259.00,314.71
             282.85,312.00 302.08,300.34 310.94,277.00
             324.51,241.24 301.03,202.41 263.00,197.85
             258.35,197.29 257.93,196.87 253.00,197.29 Z" />
</svg>
