<?xml version="1.0" standalone="no"?>
<!DOCTYPE svg PUBLIC "-//W3C//DTD SVG 20010904//EN"
 "http://www.w3.org/TR/2001/REC-SVG-20010904/DTD/svg10.dtd">
<svg version="1.0" xmlns="http://www.w3.org/2000/svg"
 width="512.000000pt" height="512.000000pt" viewBox="0 0 512.000000 512.000000"
 preserveAspectRatio="xMidYMid meet">

<g transform="translate(0.000000,512.000000) scale(0.100000,-0.100000)"
fill="#000000" stroke="none">
<path d="M2492 4467 c-66 -25 -101 -64 -153 -174 -58 -124 -132 -237 -227
-347 -287 -329 -831 -612 -1407 -731 -151 -31 -163 -35 -208 -75 -96 -84 -85
-249 22 -325 l43 -30 456 -7 c252 -5 1146 -7 1987 -5 l1530 2 45 25 c127 72
148 246 40 344 -41 37 -48 39 -240 81 -523 113 -1002 351 -1301 648 -122 121
-209 241 -285 394 -70 142 -103 181 -173 202 -47 14 -86 13 -129 -2z m139
-732 c132 -168 394 -398 562 -494 31 -18 57 -34 57 -37 0 -2 -312 -4 -692 -3
-540 0 -689 3 -675 12 134 87 221 147 285 199 99 80 264 247 333 337 29 39 57
70 60 69 4 -2 35 -39 70 -83z"/>
<path d="M1212 2547 c-50 -19 -102 -65 -123 -111 -18 -39 -19 -80 -19 -836 0
-752 1 -797 19 -836 22 -49 78 -97 130 -113 52 -15 2628 -16 2684 0 49 13 105
63 128 114 17 38 19 87 19 835 0 748 -2 797 -19 835 -23 51 -79 101 -128 114
-57 16 -2647 14 -2691 -2z m2418 -947 l0 -530 -215 0 -215 0 0 338 c0 333 0
338 -24 387 -27 59 -46 77 -106 104 -43 20 -64 21 -510 21 -446 0 -467 -1
-510 -21 -60 -27 -79 -45 -106 -104 -24 -49 -24 -54 -24 -387 l0 -338 -215 0
-215 0 0 530 0 530 1070 0 1070 0 0 -530z m-860 -320 l0 -210 -210 0 -210 0 0
210 0 210 210 0 210 0 0 -210z"/>
</g>
</svg>
