<?xml version="1.0" encoding="UTF-8" standalone="no"?><svg xmlns:svg="http://www.w3.org/2000/svg" xmlns="http://www.w3.org/2000/svg" xmlns:xlink="http://www.w3.org/1999/xlink" version="1.0" width="64px" height="64px" viewBox="0 0 128 128" xml:space="preserve"><g><path d="M46 1.2l4.33 11.3a40.3 40.3 0 0 1 12.92-6.25c6.78-1.62 20 1.04 20 1.04S72.18.93 62.75.5A91.88 91.88 0 0 0 46 1.2z" fill="#000"/><path d="M46 1.2l4.33 11.3a40.3 40.3 0 0 1 12.92-6.25c6.78-1.62 20 1.04 20 1.04S72.18.93 62.75.5A91.88 91.88 0 0 0 46 1.2z" fill="#f7f7f7" transform="rotate(45 64 64)"/><path d="M46 1.2l4.33 11.3a40.3 40.3 0 0 1 12.92-6.25c6.78-1.62 20 1.04 20 1.04S72.18.93 62.75.5A91.88 91.88 0 0 0 46 1.2z" fill="#dedede" transform="rotate(90 64 64)"/><path d="M46 1.2l4.33 11.3a40.3 40.3 0 0 1 12.92-6.25c6.78-1.62 20 1.04 20 1.04S72.18.93 62.75.5A91.88 91.88 0 0 0 46 1.2z" fill="#bcbcbc" transform="rotate(135 64 64)"/><path d="M46 1.2l4.33 11.3a40.3 40.3 0 0 1 12.92-6.25c6.78-1.62 20 1.04 20 1.04S72.18.93 62.75.5A91.88 91.88 0 0 0 46 1.2z" fill="#969696" transform="rotate(180 64 64)"/><path d="M46 1.2l4.33 11.3a40.3 40.3 0 0 1 12.92-6.25c6.78-1.62 20 1.04 20 1.04S72.18.93 62.75.5A91.88 91.88 0 0 0 46 1.2z" fill="#717171" transform="rotate(225 64 64)"/><path d="M46 1.2l4.33 11.3a40.3 40.3 0 0 1 12.92-6.25c6.78-1.62 20 1.04 20 1.04S72.18.93 62.75.5A91.88 91.88 0 0 0 46 1.2z" fill="#4a4a4a" transform="rotate(270 64 64)"/><path d="M46 1.2l4.33 11.3a40.3 40.3 0 0 1 12.92-6.25c6.78-1.62 20 1.04 20 1.04S72.18.93 62.75.5A91.88 91.88 0 0 0 46 1.2z" fill="#272727" transform="rotate(315 64 64)"/><animateTransform attributeName="transform" type="rotate" values="0 64 64;45 64 64;90 64 64;135 64 64;180 64 64;225 64 64;270 64 64;315 64 64" calcMode="discrete" dur="1120ms" repeatCount="indefinite"></animateTransform></g></svg>