<?xml version="1.0" encoding="UTF-8" standalone="no"?>
<!DOCTYPE svg PUBLIC "-//W3C//DTD SVG 20010904//EN"
              "http://www.w3.org/TR/2001/REC-SVG-20010904/DTD/svg10.dtd">

<svg xmlns="http://www.w3.org/2000/svg"
     width="135.486mm" height="135.486mm"
     viewBox="0 0 512 512">
  <path id="Seleção"
        fill="#000" stroke="none" stroke-width="1"
        d="M 205.00,197.00
           C 220.37,193.49 231.08,188.20 248.00,188.00
             273.88,187.70 295.66,190.49 319.00,202.78
             336.43,211.96 352.67,225.23 364.53,241.00
             410.07,301.60 398.90,386.33 339.00,432.99
             328.09,441.49 315.10,448.54 302.00,453.00
             288.80,457.49 272.97,460.83 259.00,461.00
             235.82,461.27 210.20,455.54 190.00,444.00
             170.58,432.90 158.16,422.11 144.88,404.00
             131.50,385.74 122.33,361.57 119.88,339.00
             119.88,339.00 119.88,326.00 119.88,326.00
             119.88,326.00 119.88,318.00 119.88,318.00
             121.11,290.63 128.40,268.63 144.02,246.00
             148.62,239.35 153.29,233.72 159.00,228.00
             169.16,217.80 170.98,219.52 171.00,209.00
             171.00,209.00 171.00,133.00 171.00,133.00
             171.02,120.64 174.25,109.01 179.75,98.00
             201.34,54.82 257.16,37.57 299.00,62.45
             323.57,77.06 340.95,104.00 341.00,133.00
             341.00,133.00 341.00,154.00 341.00,154.00
             341.00,154.00 316.00,154.00 316.00,154.00
             314.01,154.00 310.19,154.23 308.60,152.98
             306.74,151.51 307.02,148.13 307.00,146.00
             307.00,146.00 307.00,137.00 307.00,137.00
             306.92,119.98 298.27,103.60 284.00,94.10
             263.21,80.27 237.45,83.32 220.01,101.00
             214.96,106.13 210.55,112.18 208.09,119.00
             203.99,130.38 205.00,139.22 205.00,151.00
             205.00,151.00 205.00,197.00 205.00,197.00 Z
           M 273.00,375.00
           C 273.00,375.00 273.00,344.00 273.00,344.00
             273.07,333.75 276.20,336.55 282.32,328.96
             286.99,323.18 289.81,316.45 289.99,309.00
             290.14,302.48 289.22,296.85 286.18,291.00
             270.50,260.86 222.83,270.76 222.01,306.00
             221.83,314.10 223.94,321.39 228.79,327.99
             234.93,336.36 238.93,333.10 239.00,344.00
             239.00,344.00 239.00,375.00 239.00,375.00
             239.00,375.00 273.00,375.00 273.00,375.00 Z" />
</svg>
