<?xml version="1.0" standalone="no"?>
<!DOCTYPE svg PUBLIC "-//W3C//DTD SVG 20010904//EN"
 "http://www.w3.org/TR/2001/REC-SVG-20010904/DTD/svg10.dtd">
<svg version="1.0" xmlns="http://www.w3.org/2000/svg"
 width="512.000000pt" height="512.000000pt" viewBox="0 0 512.000000 512.000000"
 preserveAspectRatio="xMidYMid meet">

<g transform="translate(0.000000,512.000000) scale(0.100000,-0.100000)"
fill="#000000" stroke="none">
<path d="M3185 4303 c-28 -10 -72 -31 -98 -46 -52 -31 -686 -645 -1125 -1092
-310 -313 -322 -331 -322 -450 0 -139 82 -245 215 -280 72 -18 131 -12 198 21
l47 23 0 -214 0 -214 -37 -6 c-70 -11 -78 -14 -125 -44 -28 -18 -57 -48 -75
-78 -24 -41 -28 -59 -28 -124 0 -67 4 -81 30 -124 40 -65 96 -103 173 -118
l62 -12 0 -121 0 -121 -49 -6 c-206 -24 -294 -271 -150 -416 77 -77 -31 -72
1445 -69 l1321 3 49 30 c68 43 107 108 112 190 5 78 -8 120 -54 174 -45 52
-101 81 -170 88 l-54 6 0 122 0 122 56 7 c71 8 123 35 166 86 106 123 60 323
-87 384 -17 8 -55 17 -83 21 l-52 7 0 217 0 218 61 -31 c146 -72 314 -15 386
132 22 46 27 69 27 127 -2 118 -16 138 -286 410 l-238 241 0 445 0 446 -23 21
c-23 22 -29 22 -329 22 -376 0 -351 10 -356 -140 l-4 -101 -92 89 c-69 67
-111 98 -171 128 -74 37 -84 39 -184 42 -82 2 -117 -2 -156 -15z m-157 -399
c-145 -141 -446 -441 -670 -666 -392 -393 -409 -412 -424 -465 -17 -58 -13
-106 12 -155 l15 -28 -36 0 c-109 0 -163 115 -97 206 41 55 1269 1273 1319
1307 41 28 105 56 131 57 8 0 -105 -115 -250 -256z m-518 -1439 l0 -415 -120
0 -120 0 0 297 0 298 117 117 c65 65 119 118 120 118 2 0 3 -187 3 -415z
m-380 -604 c-13 -25 -13 -92 0 -127 l10 -27 -52 5 c-61 6 -98 40 -98 89 0 48
39 79 100 79 47 0 50 -1 40 -19z m378 -433 l-3 -123 -117 -3 -118 -3 0 126 0
125 120 0 121 0 -3 -122z m-378 -314 c-13 -33 -13 -100 0 -125 10 -18 7 -19
-37 -19 -60 0 -90 20 -99 65 -11 62 31 103 108 104 36 1 37 0 28 -25z"/>
<path d="M985 2152 c-16 -11 -219 -153 -450 -316 -284 -201 -424 -306 -434
-325 -11 -24 -11 -33 0 -57 10 -19 151 -126 454 -340 380 -270 445 -313 477
-313 28 -1 41 5 57 25 19 24 21 40 21 175 l0 149 276 0 c280 0 303 3 331 39 9
12 12 91 13 294 l0 278 -25 24 -24 25 -286 0 -285 0 0 154 c0 132 -3 157 -17
175 -26 30 -72 36 -108 13z"/>
</g>
</svg>
